<svg width="1440" height="1024" viewBox="0 0 1440 1024" fill="none" xmlns="http://www.w3.org/2000/svg">
<g clip-path="url(#clip0_1_2)">
<rect width="1440" height="1024" fill="#69B9FC"/>
<path fill-rule="evenodd" clip-rule="evenodd" d="M1380.78 599.653C1362.17 582.409 1344.02 565.586 1321.62 571.049C1299.71 576.393 1289.84 598.112 1279.74 620.355C1271.36 638.797 1262.82 657.6 1247.11 667.73C1233.64 676.421 1216.02 675.02 1198.67 673.638C1179.15 672.085 1159.96 670.557 1147.36 683.45C1134.26 696.85 1136.42 716.37 1138.63 736.402C1140.3 751.489 1142 766.867 1137.24 780.139C1131.84 795.202 1119.4 808.044 1107.21 820.618C1090.03 838.352 1073.36 855.553 1077.7 877.697C1082.51 902.268 1103.44 906.1 1126.39 910.301C1145.8 913.854 1166.65 917.67 1180.42 934.512C1192.27 948.997 1193.76 965.379 1195.38 983.121C1197.12 1002.28 1199.01 1023.01 1214.24 1044.66C1236.78 1076.7 1282.4 1089.65 1321.62 1088.98C1393.27 1087.74 1449.07 1038.38 1502.23 970.596C1555.4 902.81 1564.51 842.107 1546.71 770.868C1524.86 683.45 1498.18 665.056 1416.01 626.539C1403.41 620.632 1392.01 610.065 1380.78 599.653ZM1230 608.646C1230 628.339 1217.92 644.304 1203.02 644.304C1188.11 644.304 1176.03 628.339 1176.03 608.646C1176.03 588.953 1188.11 572.989 1203.02 572.989C1217.92 572.989 1230 588.953 1230 608.646Z" fill="white"/>
<path d="M-1.60379 839.52C2.40466 788.366 14.9225 768.283 49.4947 757.553C121.605 735.17 194.8 824.118 247.495 868.587C288.192 902.935 333.306 948.327 316.325 1011.15C297.229 1081.84 208.131 1113.47 157.851 1067.32C121.796 1034.22 108.042 1032.98 62.707 1058.75C12.3382 1087.39 -14.8816 1084.85 -37.1586 1049.44C-54.7615 1021.47 -50.988 987.892 -37.275 959.369C-6.16332 894.652 -5.83462 893.556 -1.60379 839.52Z" fill="white"/>
<path d="M1087 -46.9362C1120.94 -103.409 1159.48 -122.754 1255.21 -131.372C1337.89 -138.808 1429.6 -198.383 1521.98 -168.832C1563.44 -155.568 1593.67 -83.1984 1561.52 -10.2327C1529.38 62.7359 1450.29 44.5264 1358.55 207.979C1274.59 357.586 1134.95 360.512 1073.49 180.338C1047.23 103.344 1052.77 10.003 1087 -46.9362Z" fill="white"/>
<path d="M96.9916 292C57.8888 292 26.7843 269.778 16.1199 197.822C5.45549 125.866 -30.649 125.59 -45.0095 74.4781C-72.7615 -24.144 51.7383 -25.0699 96.9205 -12.2837C173.088 9.27721 274.261 -19.0528 343.636 23.0717C410.369 63.5958 441.285 189.941 379.911 254.096C345.284 290.286 309.544 293.384 251.133 265.256C183.185 232.537 161.204 292 96.9916 292Z" fill="white"/>
<path d="M0 490.679C8.51763 489.618 32.0134 483.222 69.9892 475.717C133.327 463.2 164.824 454.294 195.954 449.441C210.747 447.135 224.93 447.834 258.968 446.227C335.351 442.62 397.372 447.802 417.171 451.016C452.279 456.715 494.922 475.637 508.856 482.081C541.998 497.41 578.427 551.556 597.247 576.852C609.257 592.995 612.819 606.326 614.443 622.397C616.294 640.725 619.248 657.753 620.871 756.526C621.676 805.545 634.162 876.062 651.888 910.052C660.392 926.359 675.946 941.631 696.324 967.345C723.177 1001.23 750.966 1014.53 764.931 1026.34C780.636 1039.62 808.821 1055.22 823.848 1063.85C844.247 1075.57 863.463 1088.46 909.442 1116.27C937.067 1132.99 982.324 1140.98 1013.42 1145.83C1045.3 1150.8 1064.86 1149.59 1083.1 1152.26C1099.06 1152.8 1112.08 1151.74 1118.49 1149.61C1121.72 1148.53 1124.91 1147.47 1128.18 1146.38" stroke="white" stroke-width="150" stroke-linecap="round"/>
<path d="M867.698 -11C863.423 -7.81794 857.026 7.12809 853.78 26.9597C849.963 50.2807 846.291 77.8405 839.863 104.583C830.811 142.237 835.556 194.259 844.62 240.142C849.403 264.355 875.09 296.342 898.152 326.925C910.556 343.375 926.517 357.476 952.713 378.336C1020.82 432.571 1049.75 429.345 1072.78 434.681C1094.32 439.67 1114.03 438.988 1128.53 441.656C1136.42 443.108 1144.09 443.263 1172.24 444.34C1243.84 447.078 1299.4 440.081 1315.95 435.806C1349.52 427.136 1366.86 419.767 1391.52 409.562C1414.08 398.296 1423.72 392.928 1430.13 390.261C1433.36 388.654 1436.55 386.532 1439.83 384.347" stroke="white" stroke-width="150" stroke-linecap="round"/>
</g>
<defs>
<clipPath id="clip0_1_2">
<rect width="1440" height="1024" fill="white"/>
</clipPath>
</defs>
</svg>
